<?xml version="1.0" standalone="no"?>
<!DOCTYPE svg PUBLIC "-//W3C//DTD SVG 20010904//EN"
 "http://www.w3.org/TR/2001/REC-SVG-20010904/DTD/svg10.dtd">
<svg version="1.0" xmlns="http://www.w3.org/2000/svg"
 width="179.000000pt" height="179.000000pt" viewBox="0 0 179.000000 179.000000"
 preserveAspectRatio="xMidYMid meet">
<metadata>
Created by potrace 1.14, written by Peter Selinger 2001-2017
</metadata>
<g transform="translate(0.000000,179.000000) scale(0.100000,-0.100000)"
fill="#000000" stroke="none">
<path d="M425 1678 c-14 -3 -25 -4 -25 -1 0 3 -7 0 -15 -7 -8 -7 -15 -9 -15
-5 0 4 -6 2 -13 -4 -8 -6 -17 -8 -20 -4 -4 3 -7 1 -7 -6 0 -7 -4 -9 -10 -6 -5
3 -10 2 -10 -3 0 -5 -12 -15 -27 -23 -30 -15 -143 -128 -144 -144 0 -2 -7 -22
-16 -42 -8 -21 -18 -51 -21 -68 -3 -16 -6 -237 -6 -490 -1 -425 0 -464 18
-517 10 -32 23 -58 27 -58 5 0 8 -3 7 -7 -4 -15 45 -78 87 -112 52 -41 92 -63
138 -76 4 -2 8 -4 10 -5 9 -9 102 -12 497 -15 461 -3 549 3 590 40 8 7 19 13
23 13 5 0 19 9 32 20 13 11 25 19 27 18 1 -1 13 8 25 21 12 13 19 23 15 23 -3
0 4 7 16 16 12 8 20 19 17 24 -3 5 0 12 7 17 21 13 37 49 52 112 11 46 13 156
11 512 -1 250 -5 465 -9 479 -9 39 -69 152 -83 157 -7 3 -10 9 -7 14 3 5 -1 9
-8 9 -7 0 -28 17 -47 37 -18 21 -30 31 -26 23 4 -9 1 -8 -8 3 -8 9 -21 17 -29
17 -8 0 -19 5 -25 11 -6 6 -19 12 -29 14 -11 2 -19 4 -19 5 0 13 -933 21 -980
8z"/>
</g>
</svg>
